<?xml version="1.0" encoding="utf-8"?>
<!-- Svg Vector Icons : http://www.onlinewebfonts.com/icon -->
<!DOCTYPE svg PUBLIC "-//W3C//DTD SVG 1.1//EN" "http://www.w3.org/Graphics/SVG/1.1/DTD/svg11.dtd">
<svg version="1.1" class="fill" xmlns="http://www.w3.org/2000/svg" xmlns:xlink="http://www.w3.org/1999/xlink" x="0px" y="0px" viewBox="0 0 1000 1000" enable-background="new 0 0 1000 1000" xml:space="preserve">
<metadata> Svg Vector Icons : http://www.onlinewebfonts.com/icon </metadata>
<g><path d="M500,10C229.8,10,10,229.8,10,500c0,270.2,219.8,490,490,490c270.2,0,490-219.8,490-490C990,229.8,770.2,10,500,10z M500,914.6c-228.6,0-414.6-186-414.6-414.6S271.4,85.4,500,85.4c228.6,0,414.6,186,414.6,414.6S728.6,914.6,500,914.6z"/><path d="M673.7,309L405.6,631.2L266.4,501.9c-15.3-14.2-39.1-13.3-53.3,2c-14.2,15.3-13.3,39.1,2,53.3l168.4,156.4c7,6.5,16.2,10.1,25.7,10.1c0.8,0,1.6,0,2.4-0.1c10.3-0.7,19.9-5.6,26.6-13.5l293.6-352.8c13.3-16,11.1-39.8-4.9-53.1C710.8,290.8,687.1,293,673.7,309z"/></g>
</svg>